<?xml version="1.0" standalone="no"?>
<!DOCTYPE svg PUBLIC "-//W3C//DTD SVG 20010904//EN"
 "http://www.w3.org/TR/2001/REC-SVG-20010904/DTD/svg10.dtd">
<svg version="1.0" xmlns="http://www.w3.org/2000/svg"
 width="811.000000pt" height="290.000000pt" viewBox="0 0 811.000000 290.000000"
 preserveAspectRatio="xMidYMid meet">
<metadata>
Created by potrace 1.16, written by Peter Selinger 2001-2019
</metadata>
<g transform="translate(0.000000,290.000000) scale(0.100000,-0.100000)"
fill="#000000" stroke="none">
<path d="M842 2637 l-162 -162 0 -308 c0 -266 2 -307 15 -307 9 0 15 9 15 25
0 16 6 25 15 25 9 0 15 -9 15 -25 0 -18 5 -25 20 -25 15 0 20 7 20 25 0 16 6
25 15 25 9 0 15 -9 15 -25 0 -21 5 -25 30 -25 l30 0 -2 -365 -3 -365 28 0 c15
0 27 5 27 10 0 6 -4 10 -10 10 -5 0 -10 10 -10 21 0 20 4 21 70 17 64 -3 69
-2 64 14 -5 16 2 18 65 18 l71 0 0 -31 c0 -26 3 -30 23 -27 19 3 22 10 25 56
l3 52 60 0 61 0 -7 30 -7 30 111 0 110 0 -6 -50 -6 -50 62 0 61 0 0 230 c0
147 4 230 10 230 6 0 10 7 10 15 0 12 -17 15 -90 15 l-90 0 0 35 0 35 -50 0
-50 0 0 280 c0 242 -2 280 -15 280 -11 0 -15 11 -15 40 0 33 -3 40 -20 40 -16
0 -20 7 -20 30 l0 30 -115 0 -115 0 0 -30 c0 -23 -4 -30 -20 -30 -17 0 -20 -7
-20 -40 0 -33 -3 -40 -20 -40 -19 0 -20 7 -20 225 0 124 -3 225 -8 225 -4 0
-80 -73 -170 -163z"/>
<path d="M2357 1626 c-79 -21 -127 -82 -127 -161 0 -75 54 -134 155 -171 86
-31 115 -49 115 -73 0 -28 -28 -46 -73 -46 -33 0 -44 6 -67 33 -26 31 -31 33
-81 30 l-54 -3 3 -34 c10 -122 178 -191 309 -125 82 40 115 130 77 209 -23 49
-43 63 -146 104 -75 30 -95 42 -102 64 -13 37 7 57 56 57 33 0 42 -5 56 -30
16 -28 21 -30 75 -30 54 0 57 1 57 25 0 72 -59 137 -140 154 -60 13 -52 13
-113 -3z"/>
<path d="M2713 1624 c-10 -4 -13 -71 -13 -285 l0 -279 60 0 60 0 0 172 c0 95
4 168 8 163 5 -6 28 -57 52 -115 24 -58 48 -111 53 -117 5 -7 27 -13 48 -13
41 0 52 13 84 99 8 20 25 63 39 96 l26 60 0 -160 c0 -88 4 -166 9 -173 5 -9
25 -12 62 -10 l54 3 3 274 c2 213 -1 276 -10 283 -16 10 -109 10 -124 0 -6 -4
-26 -41 -43 -82 -18 -41 -41 -95 -51 -120 -11 -25 -26 -63 -35 -85 l-16 -40
-52 125 c-91 215 -83 205 -147 207 -30 1 -61 -1 -67 -3z"/>
<path d="M3503 1622 c-11 -7 -170 -478 -180 -534 l-5 -28 65 0 65 0 14 43 15
42 99 3 99 3 15 -43 15 -43 59 -3 c32 -2 63 1 68 6 5 5 1 31 -11 63 -11 30
-50 149 -87 264 -36 116 -74 216 -82 223 -17 13 -129 17 -149 4z"/>
<path d="M3902 1622 c-9 -6 -12 -70 -10 -283 l3 -274 60 0 60 0 3 93 c3 89 3
92 27 92 18 0 42 -23 100 -95 l76 -95 63 0 c34 0 65 3 69 6 3 4 -28 48 -68
100 -41 51 -75 96 -75 99 0 3 18 23 39 44 86 86 62 230 -48 295 -25 14 -59 19
-159 23 -70 2 -133 0 -140 -5z m233 -118 c23 -9 47 -61 39 -87 -13 -45 -34
-57 -96 -57 l-58 0 0 75 0 75 49 0 c27 0 57 -3 66 -6z"/>
<path d="M4343 1623 c-8 -3 -13 -25 -13 -58 0 -61 5 -65 81 -65 l49 0 2 -217
3 -218 60 0 60 0 3 218 2 217 49 0 c76 0 81 4 81 65 0 39 -4 54 -16 59 -19 7
-343 7 -361 -1z"/>
<path d="M4793 1623 c-10 -3 -13 -70 -13 -284 l0 -279 165 0 165 0 6 24 c3 13
4 38 2 57 l-3 34 -105 5 -105 5 0 50 0 50 93 3 93 3 -3 57 -3 57 -92 3 -93 3
0 44 0 45 89 0 c119 0 121 1 121 65 0 39 -4 54 -16 59 -19 7 -283 7 -301 -1z"/>
<path d="M5203 1624 c-10 -4 -13 -71 -13 -285 l0 -279 59 0 c71 0 74 4 70 112
-2 71 -2 73 23 76 21 3 36 -12 99 -92 l74 -96 67 0 c41 0 68 4 68 10 0 6 -33
52 -74 103 l-75 92 39 40 c21 22 44 53 49 68 29 75 -3 167 -76 219 -40 29 -45
30 -170 34 -70 2 -134 1 -140 -2z m241 -135 c33 -26 36 -79 6 -109 -17 -17
-31 -20 -76 -18 -30 2 -54 6 -54 11 0 4 0 36 0 72 l0 65 49 0 c34 0 56 -6 75
-21z"/>
<path d="M146 1038 c-3 -13 -6 -78 -6 -144 0 -169 -6 -163 180 -166 l145 -3 3
-192 2 -193 75 0 75 0 0 195 0 195 405 0 405 0 0 -195 0 -195 75 0 75 0 0 195
0 195 145 0 c185 0 177 -8 173 186 l-3 139 -871 3 -872 2 -6 -22z"/>
</g>
</svg>
